<?xml version="1.0" encoding="iso-8859-1"?>
<!-- Uploaded to: SVG Repo, www.svgrepo.com, Generator: SVG Repo Mixer Tools -->
<svg height="800px" width="800px" version="1.1" id="Layer_1" xmlns="http://www.w3.org/2000/svg" xmlns:xlink="http://www.w3.org/1999/xlink" 
	 viewBox="0 0 512 512" xml:space="preserve">
<path style="fill:#FFE98F;" d="M256,0l-82.096,57.779L74.98,74.98l-17.202,98.925L0,256l57.78,82.094l17.202,98.924l98.924,17.203
	L256,512l82.094-57.779l98.925-17.2l17.202-98.924L512,256l-57.779-82.094L437.02,74.983l-98.924-17.205L256,0L256,0z"/>
<g>
	<polygon style="fill:#FFDA44;" points="454.221,173.906 437.02,74.983 338.096,57.779 256,0 256,512 338.094,454.221 
		437.018,437.021 454.22,338.097 512,256 	"/>
	<polygon style="fill:#FFDA44;" points="190.187,414.917 110.876,401.124 97.085,321.813 50.764,256 97.085,190.186 
		110.876,110.874 190.186,97.084 256,50.764 321.813,97.084 401.124,110.877 414.915,190.187 461.236,256 414.915,321.817 
		401.124,401.126 321.813,414.917 256,461.236 	"/>
</g>
<polygon style="fill:#FF9811;" points="414.915,190.187 401.124,110.877 321.813,97.084 256,50.764 256,461.236 321.813,414.917 
	401.124,401.126 414.915,321.817 461.236,256 "/>
<circle style="fill:#FF5023;" cx="256" cy="256" r="145.297"/>
<path style="fill:#BF3C1A;" d="M256,110.703c80.246,0,145.297,65.052,145.297,145.297S336.246,401.297,256,401.297"/>
</svg>