<?xml version="1.0" encoding="iso-8859-1"?>
<!-- Uploaded to: SVG Repo, www.svgrepo.com, Generator: SVG Repo Mixer Tools -->
<svg height="800px" width="800px" version="1.1" id="Layer_1" xmlns="http://www.w3.org/2000/svg" xmlns:xlink="http://www.w3.org/1999/xlink" 
	 viewBox="0 0 512 512" xml:space="preserve">
<circle style="fill:#FFFFFF;" cx="256" cy="256" r="231.226"/>
<path style="fill:#BFE4F8;" d="M256,512C114.842,512,0,397.16,0,256S114.842,0,256,0s256,114.84,256,256S397.158,512,256,512z
	 M256,49.548C142.163,49.548,49.548,142.163,49.548,256S142.163,462.452,256,462.452S462.452,369.837,462.452,256
	S369.837,49.548,256,49.548z"/>
<path style="fill:#1E2E3B;" d="M495.484,256c0-97.164-58.166-180.994-141.505-218.51C280.417,82.515,231.226,163.617,231.226,256
	s49.192,173.485,122.753,218.51C437.317,436.994,495.484,353.164,495.484,256z"/>
<path style="fill:#93C7EF;" d="M256,0v49.548c113.837,0,206.452,92.614,206.452,206.452S369.837,462.452,256,462.452V512
	c141.158,0,256-114.84,256-256S397.158,0,256,0z"/>
</svg>