<?xml version="1.0" encoding="iso-8859-1"?>
<!-- Uploaded to: SVG Repo, www.svgrepo.com, Generator: SVG Repo Mixer Tools -->
<svg height="800px" width="800px" version="1.1" id="Layer_1" xmlns="http://www.w3.org/2000/svg" xmlns:xlink="http://www.w3.org/1999/xlink" 
	 viewBox="0 0 512 512" xml:space="preserve">
<circle style="fill:#5A8BB0;" cx="256" cy="256" r="214.71"/>
<path style="fill:#3C5D76;" d="M256,41.29c118.581,0,214.71,96.129,214.71,214.71S374.581,470.71,256,470.71"/>
<g>
	<path style="fill:#CCE9F9;" d="M209.989,26.981c-9.46,5.511-18.957,10.967-28.413,16.485
		c-13.015,7.594-25.924,15.385-38.516,23.666c4.516-0.695,9.135-1.067,13.842-1.067c50.088,0,90.839,40.75,90.839,90.839
		s-40.75,90.839-90.839,90.839s-90.839-40.75-90.839-90.839c0-3.171,0.167-6.304,0.486-9.393c-1.338,2.144-2.676,4.288-3.989,6.446
		c-6.671,10.967-13.015,22.145-18.7,33.658c-1.561,3.161-2.994,6.377-4.511,9.558c-0.226,0.476-0.4,0.832-0.537,1.112
		c-0.168,0.454-0.42,1.108-0.781,2.03c-2.231,5.685-4.177,11.456-5.858,17.325c-0.206,0.722-0.466,1.407-0.715,2.099
		c23.088,45.938,70.62,77.551,125.443,77.551c77.409,0,140.387-62.978,140.387-140.387C297.29,98.274,261.153,47.955,209.989,26.981
		z"/>
	<path style="fill:#CCE9F9;" d="M363.355,470.71h-49.548c0-31.874-25.932-57.806-57.806-57.806s-57.806,25.932-57.806,57.806
		h-49.548c0-59.195,48.159-107.355,107.355-107.355S363.355,411.514,363.355,470.71z"/>
</g>
<g>
	<path style="fill:#93C7EF;" d="M363.355,470.71h-49.548c0-31.874-25.932-57.806-57.806-57.806v-49.548
		C315.195,363.355,363.355,411.514,363.355,470.71z"/>
	<path style="fill:#93C7EF;" d="M487.226,363.355c-59.195,0-107.355-48.159-107.355-107.355s48.159-107.355,107.355-107.355v49.548
		c-31.874,0-57.806,25.932-57.806,57.806s25.932,57.806,57.806,57.806V363.355z"/>
</g>
<circle style="fill:#CCE9F9;" cx="156.903" cy="156.903" r="33.032"/>
<path style="fill:#93C7EF;" d="M256,512C114.842,512,0,397.158,0,256S114.842,0,256,0s256,114.842,256,256S397.158,512,256,512z
	 M256,49.548C142.163,49.548,49.548,142.163,49.548,256S142.163,462.452,256,462.452S462.452,369.837,462.452,256
	S369.837,49.548,256,49.548z"/>
<path style="fill:#78B9EB;" d="M256,512v-49.548c113.837,0,206.452-92.614,206.452-206.452S369.837,49.548,256,49.548V0
	c141.158,0,256,114.842,256,256S397.158,512,256,512z"/>
</svg>