<?xml version="1.0" encoding="iso-8859-1"?>
<!-- Uploaded to: SVG Repo, www.svgrepo.com, Generator: SVG Repo Mixer Tools -->
<svg height="800px" width="800px" version="1.1" id="Layer_1" xmlns="http://www.w3.org/2000/svg" xmlns:xlink="http://www.w3.org/1999/xlink" 
	 viewBox="0 0 512 512" xml:space="preserve">
<circle style="fill:#78B9EB;" cx="256" cy="256" r="214.71"/>
<path style="fill:#5A8BB0;" d="M256,41.29c118.581,0,214.71,96.129,214.71,214.71S374.581,470.71,256,470.71"/>
<polygon style="fill:#64C37D;" points="305.548,90.839 305.548,140.387 338.581,156.903 338.581,239.484 272.516,239.484 
	256,322.065 305.548,322.065 350.142,470.71 392.848,454.194 421.161,256 476.215,189.935 421.161,90.839 "/>
<g>
	<polygon style="fill:#91DC5A;" points="222.968,140.387 222.968,173.419 140.387,206.452 140.387,256 173.419,256 140.387,355.097 
		24.773,281.524 57.806,140.387 	"/>
	<circle style="fill:#91DC5A;" cx="214.198" cy="397.411" r="24.774"/>
</g>
<path style="fill:#E4F1FB;" d="M256,512C114.842,512,0,397.158,0,256S114.842,0,256,0c141.16,0,256,114.842,256,256
	S397.16,512,256,512z M256,49.548C142.163,49.548,49.548,142.163,49.548,256S142.163,462.452,256,462.452
	S462.452,369.837,462.452,256S369.837,49.548,256,49.548z"/>
<path style="fill:#CCE9F9;" d="M256,512v-49.548c113.837,0,206.452-92.614,206.452-206.452S369.837,49.548,256,49.548V0
	c141.16,0,256,114.842,256,256S397.16,512,256,512z"/>
</svg>