<?xml version="1.0" encoding="iso-8859-1"?>
<!-- Uploaded to: SVG Repo, www.svgrepo.com, Generator: SVG Repo Mixer Tools -->
<svg height="800px" width="800px" version="1.1" id="Layer_1" xmlns="http://www.w3.org/2000/svg" xmlns:xlink="http://www.w3.org/1999/xlink" 
	 viewBox="0 0 512 512" xml:space="preserve">
<path style="fill:#BFE4F8;" d="M256,219.429c56.537,0,111.35,5.576,154.341,15.701c30.703,7.231,48.751,15.182,58.267,20.87
	c-9.517,5.689-27.564,13.64-58.267,20.87C367.35,286.996,312.537,292.571,256,292.571s-111.35-5.576-154.34-15.701
	c-30.703-7.23-48.751-15.181-58.267-20.87c9.517-5.688,27.564-13.639,58.267-20.87C144.65,225.005,199.463,219.429,256,219.429
	 M256,182.857C114.615,182.857,0,215.603,0,256c0,40.398,114.615,73.143,256,73.143S512,296.398,512,256
	C512,215.603,397.385,182.857,256,182.857L256,182.857z"/>
<circle style="fill:#802812;" cx="256" cy="256" r="135.838"/>
<path style="fill:#401409;" d="M256,120.162c75.021,0,135.837,60.817,135.837,135.838c0,75.02-60.816,135.837-135.837,135.837"/>
<g>
	<path style="fill:#FFC36C;" d="M190.98,249.905c-35.819,0-54.738-7.094-71.429-13.352c-1.325-0.497-2.65-0.995-3.984-1.488
		l12.685-34.3c1.386,0.512,2.762,1.029,4.139,1.545c15.776,5.916,29.401,11.025,58.589,11.025c29.193,0,42.818-5.109,58.596-11.026
		c16.692-6.26,35.612-13.355,71.436-13.355c35.822,0,54.74,7.094,71.433,13.352c1.325,0.497,2.65,0.995,3.985,1.488l-12.685,34.3
		c-1.386-0.512-2.764-1.029-4.139-1.545c-15.777-5.915-29.402-11.025-58.594-11.025c-29.193,0-42.818,5.109-58.596,11.026
		C245.723,242.809,226.804,249.905,190.98,249.905z"/>
	<path style="fill:#FFC36C;" d="M190.98,323.048c-35.819,0-54.738-7.094-71.429-13.352c-1.325-0.497-2.65-0.995-3.984-1.488
		l12.685-34.3c1.386,0.512,2.762,1.029,4.139,1.545c15.776,5.916,29.401,11.025,58.589,11.025c29.193,0,42.818-5.109,58.596-11.026
		c16.692-6.26,35.612-13.355,71.436-13.355c35.822,0,54.74,7.094,71.433,13.352c1.325,0.497,2.65,0.995,3.985,1.488l-12.685,34.3
		c-1.386-0.512-2.764-1.029-4.139-1.545c-15.777-5.915-29.402-11.025-58.594-11.025c-29.193,0-42.818,5.109-58.596,11.026
		C245.723,315.952,226.804,323.048,190.98,323.048z"/>
</g>
<g>
	<path style="fill:#FF9A00;" d="M321.013,262.095c-31.326,0-49.725,5.425-65.013,10.973v39.005c2.193-0.796,4.323-1.595,6.417-2.38
		c15.778-5.917,29.405-11.026,58.596-11.026c29.19,0,42.815,5.109,58.594,11.025c1.376,0.516,2.753,1.033,4.139,1.545l12.685-34.3
		c-1.335-0.494-2.66-0.991-3.985-1.488C375.753,269.189,356.835,262.095,321.013,262.095z"/>
	<path style="fill:#FF9A00;" d="M256,238.93c2.193-0.796,4.323-1.595,6.417-2.38c15.778-5.917,29.405-11.026,58.596-11.026
		c29.19,0,42.815,5.109,58.594,11.025c1.376,0.516,2.753,1.033,4.139,1.545l12.685-34.3c-1.335-0.494-2.66-0.991-3.985-1.488
		c-16.692-6.259-35.611-13.352-71.433-13.352c-31.326,0-49.725,5.425-65.013,10.973V238.93z"/>
</g>
<path style="fill:#FF5023;" d="M256,420.571c-90.746,0-164.573-73.826-164.573-164.571S165.254,91.429,256,91.429
	S420.571,165.255,420.571,256S346.745,420.571,256,420.571z M256,128c-70.58,0-128.001,57.421-128.001,128S185.42,384,256,384
	s128-57.421,128-128S326.579,128,256,128z"/>
<path style="fill:#BF3C1A;" d="M256,91.429V128c70.579,0,128,57.421,128,128s-57.421,128-128,128v36.571
	c90.745,0,164.571-73.826,164.571-164.571S346.745,91.429,256,91.429z"/>
<path style="fill:#BFE4F8;" d="M453.804,263.314c-10.288,4.323-24.446,9.077-43.464,13.556
	c-42.99,10.125-97.803,15.701-154.34,15.701s-111.35-5.576-154.34-15.701c-19.018-4.479-33.176-9.233-43.464-13.556H1.27
	c12.845,36.963,121.985,65.829,254.73,65.829s241.885-28.866,254.73-65.829H453.804z"/>
<path style="fill:#93C7EF;" d="M409.83,197.533c4.815,12.626,8.116,25.99,9.685,39.875c25.186,6.583,40.566,13.495,49.092,18.592
	c-9.517,5.689-27.564,13.64-58.268,20.87c-42.99,10.125-97.803,15.701-154.34,15.701v36.571c141.385,0,256-32.745,256-73.143
	C512,232.099,471.875,210.879,409.83,197.533z"/>
</svg>