<?xml version="1.0" encoding="iso-8859-1"?>
<!-- Uploaded to: SVG Repo, www.svgrepo.com, Generator: SVG Repo Mixer Tools -->
<svg version="1.1" id="Layer_1" xmlns="http://www.w3.org/2000/svg" xmlns:xlink="http://www.w3.org/1999/xlink" 
	 viewBox="0 0 512 512" xml:space="preserve">
<circle style="fill:#93C7EF;" cx="256" cy="256" r="214.71"/>
<path style="fill:#78B9EB;" d="M256,41.29c118.581,0,214.71,96.129,214.71,214.71S374.581,470.71,256,470.71"/>
<rect x="404.645" y="231.226" style="fill:#C9E3F7;" width="82.581" height="49.548"/>
<g>
	<rect x="41.29" y="231.226" style="fill:#E4F1FB;" width="214.71" height="49.548"/>
	<path style="fill:#E4F1FB;" d="M256,148.645c-52.663,0-103.256-15.872-146.305-45.902l28.348-40.638
		C172.736,86.305,213.524,99.097,256,99.097s83.264-12.792,117.957-36.991l28.348,40.638
		C359.256,132.773,308.663,148.645,256,148.645z"/>
	<path style="fill:#E4F1FB;" d="M383.714,457.135c-36.699-28.936-80.861-44.232-127.714-44.232
		c-42.475,0-83.263,12.792-117.957,36.991l-28.345-40.64c43.049-30.028,93.64-45.9,146.302-45.9
		c58.095,0,112.868,18.975,158.395,54.873L383.714,457.135z"/>
</g>
<rect x="305.548" y="231.226" style="fill:#C9E3F7;" width="49.548" height="49.548"/>
<path style="fill:#FF9811;" d="M256,512C114.84,512,0,397.158,0,256S114.84,0,256,0s256,114.842,256,256S397.16,512,256,512z
	 M256,49.548C142.163,49.548,49.548,142.163,49.548,256S142.163,462.452,256,462.452S462.452,369.837,462.452,256
	S369.837,49.548,256,49.548z"/>
<g>
	<path style="fill:#C9E3F7;" d="M256,148.645c52.663,0,103.256-15.872,146.305-45.902l-28.348-40.638
		C339.264,86.305,298.476,99.097,256,99.097V148.645z"/>
	<path style="fill:#C9E3F7;" d="M256,363.355v49.548c46.853,0,91.015,15.296,127.714,44.232l30.68-38.909
		C368.868,382.33,314.095,363.355,256,363.355z"/>
</g>
<path style="fill:#FF5023;" d="M256,512v-49.548c113.837,0,206.452-92.614,206.452-206.452S369.837,49.548,256,49.548V0
	c141.16,0,256,114.842,256,256S397.16,512,256,512z"/>
</svg>