<?xml version="1.0" encoding="iso-8859-1"?>
<!-- Uploaded to: SVG Repo, www.svgrepo.com, Generator: SVG Repo Mixer Tools -->
<svg height="800px" width="800px" version="1.1" id="Layer_1" xmlns="http://www.w3.org/2000/svg" xmlns:xlink="http://www.w3.org/1999/xlink" 
	 viewBox="0 0 512 512" xml:space="preserve">
<path style="fill:#BFE4F8;" d="M256,219.429c56.537,0,111.35,5.576,154.341,15.701c30.703,7.231,48.75,15.182,58.267,20.87
	c-9.517,5.689-27.564,13.64-58.267,20.87C367.35,286.996,312.538,292.571,256,292.571c-56.537,0-111.35-5.576-154.341-15.701
	c-30.703-7.23-48.751-15.181-58.267-20.87c9.517-5.688,27.564-13.64,58.267-20.87C144.65,225.005,199.463,219.429,256,219.429
	 M256,182.857C114.616,182.857,0,215.603,0,256c0,40.398,114.616,73.143,256,73.143c141.385,0,256-32.745,256-73.143
	C512,215.603,397.385,182.857,256,182.857L256,182.857z"/>
<path style="fill:#FF5023;" d="M256,128c-70.58,0-128.001,57.42-128.001,128S185.42,384,256,384c70.579,0,128-57.421,128-128
	S326.579,128,256,128z"/>
<g>
	<path style="fill:#BF3C1A;" d="M256,384c70.579,0,128-57.421,128-128s-57.421-128-128-128"/>
	<circle style="fill:#BF3C1A;" cx="188.952" cy="249.905" r="18.286"/>
	<circle style="fill:#BF3C1A;" cx="219.429" cy="195.048" r="24.381"/>
</g>
<circle style="fill:#802812;" cx="304.762" cy="292.571" r="24.381"/>
<path style="fill:#BFE4F8;" d="M452.534,263.314c-10.288,4.323-24.446,9.077-43.464,13.556
	c-42.991,10.125-97.803,15.701-154.341,15.701s-111.35-5.576-154.34-15.701c-19.018-4.479-33.176-9.233-43.464-13.556H0
	c12.845,36.963,121.984,65.829,254.729,65.829s241.885-28.866,254.73-65.829H452.534z"/>
<path style="fill:#93C7EF;" d="M365.547,189.878c7.263,11.989,12.612,25.257,15.627,39.383c10.199,1.742,19.956,3.701,29.168,5.87
	c30.703,7.231,48.75,15.182,58.267,20.87c-9.517,5.689-27.564,13.64-58.267,20.87C367.35,286.996,312.538,292.571,256,292.571
	v36.571c141.385,0,256-32.745,256-73.143C512,226.804,452.123,201.607,365.547,189.878z"/>
</svg>